# xmcd
#
# Track frame offsets:
#	150
#	32550
#	52350
#	86100
#	119850
#	151800
#	177075
#	211725
#	254700
#
# Disc length: 3950 seconds
#
# Revision: 0
# Processed by: cddbd v1.5.1PL2 Copyright (c) Steve Scherf et al.
# Submitted via: audiograbber 1.83.01
#
DISCID=810f6c09
DTITLE=IHOS KAI CD - MOUSIKI GIA THN EPOHI TOU YDROHOOU
DYEAR=1900
DGENRE=
TTITLE0=Myrrdin - MEDWYN GOODALL
TTITLE1=Lovely spring - DJIVAN GASPARYAN
TTITLE2=La rosa - SCHROEDER SHEKER
TTITLE3=Cloud mountain - ROTH, THE MIRRORS
TTITLE4=Ptisi - NIKOLOUDIS
TTITLE5=Midnight tree - SAMBODHI PREM
TTITLE6=Angel player - ERIC BERGLUND
TTITLE7=Missa Greca - DENNIS QUINN
TTITLE8=Friday morning - HAIG YAZDJIAN
EXTD=
EXTT0=
EXTT1=
EXTT2=
EXTT3=
EXTT4=
EXTT5=
EXTT6=
EXTT7=
EXTT8=
PLAYORDER=
